<svg width="64" height="64" viewBox="0 0 64 64" fill="none" xmlns="http://www.w3.org/2000/svg">
<mask id="mask0_2797_64956" style="mask-type:alpha" maskUnits="userSpaceOnUse" x="0" y="0" width="64" height="64">
<rect width="64" height="64" rx="12" fill="#F7F7F7"/>
</mask>
<g mask="url(#mask0_2797_64956)">
<rect x="-7" y="54.1475" width="55" height="55" rx="26" transform="rotate(-42.486 -7 54.1475)" fill="#E6E6E6"/>
<rect x="35" y="16.5142" width="9.64502" height="9.64502" rx="4.82251" transform="rotate(-42.486 35 16.5142)" fill="#D9D9D9"/>
<rect x="44" y="26.937" width="4.34871" height="4.34871" rx="2.17436" transform="rotate(-42.486 44 26.937)" fill="#D9D9D9"/>
<path d="M28.4727 53.5625H33.7773C35.394 53.5607 36.9439 52.9176 38.087 51.7745C39.2301 50.6314 39.8732 49.0815 39.875 47.4648V46.5625H41.1875C42.2318 46.5625 43.2333 46.1477 43.9717 45.4092C44.7102 44.6708 45.125 43.6693 45.125 42.625C45.125 41.5807 44.7102 40.5792 43.9717 39.8408C43.2333 39.1023 42.2318 38.6875 41.1875 38.6875H22.375V47.4648C22.3768 49.0815 23.0199 50.6314 24.163 51.7745C25.3061 52.9176 26.856 53.5607 28.4727 53.5625ZM39.875 40.4375H41.1875C41.7677 40.4375 42.3241 40.668 42.7343 41.0782C43.1445 41.4884 43.375 42.0448 43.375 42.625C43.375 43.2052 43.1445 43.7616 42.7343 44.1718C42.3241 44.582 41.7677 44.8125 41.1875 44.8125H39.875V40.4375ZM24.125 40.4375H38.125V47.4648C38.1237 48.6175 37.6652 49.7226 36.8502 50.5377C36.0351 51.3527 34.93 51.8112 33.7773 51.8125H28.4727C27.32 51.8112 26.2149 51.3527 25.3998 50.5377C24.5848 49.7226 24.1263 48.6175 24.125 47.4648V40.4375ZM18.875 55.75H45.125V57.5H18.875V55.75Z" fill="#CCCCCC"/>
<rect x="39" y="33.396" width="3.54757" height="3.54757" rx="1.77378" transform="rotate(-42.486 39 33.396)" fill="#F7F7F7"/>
</g>
</svg>
