<svg width="80" height="80" viewBox="0 0 80 80" fill="none" xmlns="http://www.w3.org/2000/svg">
<rect x="0.5" y="0.5" width="79" height="79" rx="19.5" fill="white" stroke="#E6E6E6"/>
<rect x="8" y="8" width="64" height="64" rx="12" fill="#F7F7F7"/>
<mask id="mask0_2797_64955" style="mask-type:alpha" maskUnits="userSpaceOnUse" x="8" y="8" width="64" height="64">
<rect x="8" y="8" width="64" height="64" rx="12" fill="#F7F7F7"/>
</mask>
<g mask="url(#mask0_2797_64955)">
<rect x="1" y="62.1475" width="55" height="55" rx="26" transform="rotate(-42.486 1 62.1475)" fill="#E6E6E6"/>
<rect x="43" y="24.5142" width="9.64502" height="9.64502" rx="4.82251" transform="rotate(-42.486 43 24.5142)" fill="#D9D9D9"/>
<rect x="52" y="34.937" width="4.34871" height="4.34871" rx="2.17436" transform="rotate(-42.486 52 34.937)" fill="#D9D9D9"/>
</g>
<path d="M36.4727 61.5625H41.7773C43.394 61.5607 44.9439 60.9176 46.087 59.7745C47.2301 58.6314 47.8732 57.0815 47.875 55.4648V54.5625H49.1875C50.2318 54.5625 51.2333 54.1477 51.9717 53.4092C52.7102 52.6708 53.125 51.6693 53.125 50.625C53.125 49.5807 52.7102 48.5792 51.9717 47.8408C51.2333 47.1023 50.2318 46.6875 49.1875 46.6875H30.375V55.4648C30.3768 57.0815 31.0199 58.6314 32.163 59.7745C33.3061 60.9176 34.856 61.5607 36.4727 61.5625ZM47.875 48.4375H49.1875C49.7677 48.4375 50.3241 48.668 50.7343 49.0782C51.1445 49.4884 51.375 50.0448 51.375 50.625C51.375 51.2052 51.1445 51.7616 50.7343 52.1718C50.3241 52.582 49.7677 52.8125 49.1875 52.8125H47.875V48.4375ZM32.125 48.4375H46.125V55.4648C46.1237 56.6175 45.6652 57.7226 44.8502 58.5377C44.0351 59.3527 42.93 59.8112 41.7773 59.8125H36.4727C35.32 59.8112 34.2149 59.3527 33.3998 58.5377C32.5848 57.7226 32.1263 56.6175 32.125 55.4648V48.4375ZM26.875 63.75H53.125V65.5H26.875V63.75Z" fill="#CCCCCC"/>
<rect x="47" y="41.396" width="3.54757" height="3.54757" rx="1.77378" transform="rotate(-42.486 47 41.396)" fill="#F7F7F7"/>
</svg>
