<svg width="512" height="512" viewBox="0 0 512 512" fill="none" xmlns="http://www.w3.org/2000/svg">
<path d="M512 281.3V277C486 277.4 457.4 277.7 431.5 278L384.5 278.5C375.2 283.4 367.8 286.9 362 289.5C356.2 292.1 346.1 296.3 339.5 299C332.9 301.6 321.4 305.9 314 308.4C306.6 311 292.9 315.3 283.5 318C274.1 320.6 260.5 324.1 253.3 325.6C246 327.2 240 328.8 240 329.3C240 329.7 291 330 353.2 330C450.9 330 467.3 329.8 472.2 328.5C475.4 327.7 480.8 325.6 484.2 323.8C487.7 322.1 492.9 318.4 495.9 315.6C498.8 312.8 502.9 307.6 505.1 304C507.2 300.4 509.6 294.8 510.5 291.5C511.3 288.2 512 283.6 512 281.3Z" fill="#C9C9C9"/>
<path d="M95.5 364H0V438V512H95.5V364Z" fill="#4398D1"/>
<path d="M287 0H234V9V18H251L251.5 51.5L269 52V18H287V0Z" fill="#D1D1D1"/>
<path d="M384.5 278.1C384 278.1 299 277.9 195.7 277.8C8.59999 277.5 8 277.5 8 279.5C8 280.6 8.6 284.4 9.4 288C10.1 291.6 12.3 297.6 14.3 301.5C16.4 305.8 20.1 310.8 23.7 314.3C26.9 317.5 32.2 321.7 35.5 323.5C38.8 325.4 44.4 327.6 48 328.4C53.6 329.8 66.9 330 147.2 330C198.3 330 240.1 329.7 240.2 329.2C240.4 328.8 246.3 327.2 253.5 325.6C260.6 324 274.1 320.6 283.5 317.9C292.9 315.3 306.6 311 314 308.4C321.4 305.9 332.9 301.6 339.5 299C346.1 296.3 356.9 291.7 363.5 288.8C370.1 285.8 377.7 282.2 380.5 280.7C383.2 279.3 385 278.1 384.5 278.1Z" fill="#D1D1D1"/>
<path d="M300.5 55.5004C290.6 53.6004 281.3 52.6004 268.9 52.2004C259.3 51.8004 248.2 51.8004 244.4 52.2004C240.6 52.6004 233.5 53.4004 228.5 54.1004C223.6 54.7004 213.7 56.7004 206.5 58.5004C199.4 60.3004 188.1 63.9004 181.5 66.5004C174.9 69.1004 165.2 73.4004 160 76.2004C154.8 78.9004 146 84.2004 140.5 87.8004C135 91.5004 127.8 96.6004 124.5 99.3004C121.2 101.9 114 108.5 108.6 113.8C103.1 119.1 95.1 128 90.7 133.5C86.3 139 80.7 146.7 78.2 150.5C75.7 154.3 71.7 161.1 69.3 165.5C66.8 169.9 62.8 178.2 60.3 184C57.9 189.8 54.3 199.4 52.5 205.5C50.7 211.6 48.3 221.2 47.1 227C46 232.8 44.6 242.4 44 248.5C43.5 254.6 43 263.7 43 268.7V278H159.5C183.5 268.8 198.2 262.9 207.5 259C216.9 255.1 233.1 247.6 243.5 242.5C254 237.4 269.5 229.2 278 224.3C286.5 219.4 299.4 211.5 306.5 206.8C313.6 202.1 324.2 194.8 330 190.5C335.8 186.2 344.6 179.3 349.5 175.1C354.5 171 363.8 162.4 370.4 156C376.9 149.7 385.9 140.2 390.4 135C394.9 129.8 400.8 122.6 403.5 119C406.2 115.4 408.7 112.3 409.2 112C409.6 111.7 407.1 109 403.7 105.9C400.3 102.8 395.3 98.6004 392.5 96.5004C389.8 94.4004 383.2 89.8004 378 86.4004C372.8 83.0004 363.1 77.5004 356.5 74.2004C349.9 70.9004 337.8 65.9004 329.5 63.1004C321.3 60.4004 308.2 56.9004 300.5 55.5004Z" fill="#E5E5E5"/>
<path d="M282.2 331.4C279.5 330.2 268.8 330 215.3 330H215.2C167.3 330.1 150.6 330.4 148 331.3C146.1 332 142.9 333.6 141 335C139.1 336.3 135.6 339 133.2 340.9C130.8 342.9 128.7 345.1 128.5 345.8C128.1 346.7 145 347 211 347C289.4 347 294 346.9 294 345.3C294 344.3 293 341.9 291.8 340C290.7 338.1 288.7 335.7 287.6 334.7C286.4 333.7 284 332.2 282.2 331.4Z" fill="#F7BB8F"/>
<path d="M445.6 334.3C442.2 332.8 438.8 332 435.1 332.1C432.1 332.1 427.8 332.8 425.6 333.7C423.4 334.6 419.3 336.9 416.6 338.8C413.8 340.8 410.6 343.4 409.3 344.7L407.1 347C451.4 347 457.1 346.7 457.1 345.8C457.1 345.1 455.6 342.7 453.9 340.6C452.1 338.4 448.3 335.6 445.6 334.3Z" fill="#F7BB8F"/>
<path d="M128.5 346C128.7 345.4 128.8 345 128.6 345C128.3 345 121 350.9 112.3 358.2C103.6 365.4 96.2 371.9 95.8 372.4C95.4 373 95 397 95 425.8V478C312.5 477.5 320.9 477.3 325.5 475.7C328.3 474.7 333 472.6 336 471C339 469.3 366.9 446.9 398 421.2C449.8 378.3 454.7 373.9 457.3 368.9C459.3 365 460 362 460 358C460 355 459.6 351.1 459 349.5L458 346.5C415 346.9 407 346.7 408 346C408.8 345.5 409.2 345 408.8 345C408.3 345 388.4 358.9 364.5 376L321 407C211.9 406.5 210.1 406.4 207.4 404.5C206 403.4 203.8 401.2 202.6 399.7C201 397.5 200.5 395.4 200.5 390.5C200.5 385.6 201 383.5 202.6 381.3C203.8 379.8 206 377.6 207.4 376.5C210 374.6 212.1 374.5 244.3 374C276.9 373.5 278.7 373.4 282.5 371.3C284.7 370.2 287.7 367.9 289.2 366.3C290.7 364.8 292.6 361.8 293.4 359.7C294.3 357.7 295 353.9 295 351.3V346.5C156.1 346.9 128.2 346.7 128.5 346Z" fill="#FEC9A3"/>
<path d="M419.2 120.8C414.7 115.9 410.4 112 409.8 112H409.7C409.1 112 406.5 114.9 404 118.3C401.5 121.7 395.6 129 390.9 134.5C386.1 140 376.9 149.7 370.4 156C363.8 162.4 354.4 171 349.5 175.1C344.5 179.3 335.8 186.2 330 190.5C324.2 194.8 313.6 202.1 306.5 206.8C299.3 211.5 286.5 219.4 278 224.3C269.5 229.2 253.9 237.4 243.5 242.5C233 247.6 216.8 255.1 207.5 259C198.1 263 184 268.6 176 271.6C168 274.7 161.3 277.3 161.1 277.5C160.9 277.8 232.1 278 319.3 278H478C478 268.3 477.5 259.6 477 252.5C476.4 245.3 474.8 233.9 473.4 227C472.1 220.1 469.8 210.7 468.4 206C466.9 201.3 464 193 461.8 187.5C459.6 182 456.4 174.8 454.8 171.5C453.1 168.2 449.3 161.4 446.2 156.5C443.1 151.6 437.6 143.4 434 138.5C430.3 133.6 423.7 125.6 419.2 120.8Z" fill="#DEDEDE"/>
<path d="M50.8 444.4C49.2 443.6 45.9 443 43.3 443C40.1 443 37.1667 443.8 34.5 445.4C31.8 447 29.7 449.3 28.1 452.6C26.2 456.5 25.8 458.4 26.3 462C26.6 464.5 28 467.9 29.2 469.7C30.5 471.5 33.1 473.8 35 474.9C37 476 40.4 476.9 42.8 477C45.1 477 48.5 476.4 50.3 475.7C52 474.9 54.7 472.9 56.3 471.2C57.8 469.4 59.5 466.1 60.1 463.8C60.9 460.7 60.9 458.5 60.1 455.7C59.5 453.7 57.8 450.6 56.3 448.9C54.7 447.1 52.3 445.1 50.8 444.4Z" fill="#E5E5E5"/>
<path d="M259.5 95.5L260 78C254.2 78.3 250 78.5 247 78.7C244 78.9 237 79.7 231.5 80.6C226 81.4 218.8 82.8 215.5 83.6C212.2 84.4 205.2 86.5 200 88.2C194.8 89.8 184.5 94.1 177.3 97.6C170 101.1 159.6 107 154.3 110.6C148.9 114.3 141.3 120 137.5 123.3C133.7 126.6 130.4 129.6 130.2 129.9C130.1 130.2 132.7 133.2 135.9 136.5L141.9 142.5C150.9 134.6 156.2 130.4 159.5 128C162.8 125.6 169.1 121.5 173.5 119C177.9 116.5 184.2 113.1 187.5 111.6C190.8 110.1 197.8 107.3 203 105.4C208.2 103.6 216.3 101.2 221 100.1C225.7 99.1 233.6 97.7 238.5 97.1C243.4 96.5 250.2 95.8 253.5 95.7L259.5 95.5Z" fill="white"/>
<path d="M130.5 153.7C121.2 145.5 118.2 143.1 117.8 143C117.5 143 115.4 145.1 113.3 147.7C111.1 150.4 107.5 155.1 105.2 158.2L101 164C109.9 170.1 113.2 172.1 114 172.5C115.1 172.9 117.1 171 121 165.9C124 161.9 127.4 157.5 128.5 156.2L130.5 153.7Z" fill="white"/>
</svg>
