<svg width="24" height="24" viewBox="0 0 24 24" fill="none" xmlns="http://www.w3.org/2000/svg">
<path d="M12 9.02495C12.1333 9.02495 12.2623 9.04995 12.387 9.09995C12.5123 9.14995 12.6167 9.21662 12.7 9.29995L17.3 13.9C17.4833 14.0833 17.575 14.3166 17.575 14.6C17.575 14.8833 17.4833 15.1166 17.3 15.3C17.1167 15.4833 16.8833 15.575 16.6 15.575C16.3167 15.575 16.0833 15.4833 15.9 15.3L12 11.4L8.1 15.3C7.91666 15.4833 7.68333 15.575 7.4 15.575C7.11666 15.575 6.88333 15.4833 6.7 15.3C6.51666 15.1166 6.425 14.8833 6.425 14.6C6.425 14.3166 6.51666 14.0833 6.7 13.9L11.3 9.29995C11.4 9.19995 11.5083 9.12928 11.625 9.08795C11.7417 9.04595 11.8667 9.02495 12 9.02495Z" fill="#222222"/>
</svg>
