<svg width="24" height="24" viewBox="0 0 24 24" fill="none" xmlns="http://www.w3.org/2000/svg">
<path d="M18.75 12.75L3.75 12.75C3.55109 12.75 3.36032 12.671 3.21967 12.5303C3.07902 12.3897 3 12.1989 3 12C3 11.8011 3.07902 11.6103 3.21967 11.4697C3.36032 11.329 3.55109 11.25 3.75 11.25L18.75 11.25C18.9489 11.25 19.1397 11.329 19.2803 11.4697C19.421 11.6103 19.5 11.8011 19.5 12C19.5 12.1989 19.421 12.3897 19.2803 12.5303C19.1397 12.671 18.9489 12.75 18.75 12.75Z" fill="#242424"/>
<path d="M18.4395 12L12.219 5.78103C12.0782 5.6402 11.9991 5.44919 11.9991 5.25003C11.9991 5.05087 12.0782 4.85986 12.219 4.71903C12.3598 4.5782 12.5508 4.49908 12.75 4.49908C12.9492 4.49908 13.1402 4.5782 13.281 4.71903L20.031 11.469C20.1008 11.5387 20.1563 11.6215 20.1941 11.7126C20.2319 11.8037 20.2513 11.9014 20.2513 12C20.2513 12.0987 20.2319 12.1964 20.1941 12.2875C20.1563 12.3786 20.1008 12.4614 20.031 12.531L13.281 19.281C13.1402 19.4219 12.9492 19.501 12.75 19.501C12.5508 19.501 12.3598 19.4219 12.219 19.281C12.0782 19.1402 11.9991 18.9492 11.9991 18.75C11.9991 18.5509 12.0782 18.3599 12.219 18.219L18.4395 12Z" fill="#242424"/>
</svg>
