<svg width="16" height="16" viewBox="0 0 16 16" fill="none" xmlns="http://www.w3.org/2000/svg">
<path d="M7.293 8.00021L5.879 6.58621C5.78792 6.49191 5.73753 6.3656 5.73867 6.23451C5.73981 6.10341 5.79239 5.978 5.88509 5.8853C5.9778 5.79259 6.1032 5.74001 6.2343 5.73887C6.3654 5.73773 6.4917 5.78813 6.586 5.87921L8 7.29321L9.414 5.87921C9.46013 5.83145 9.5153 5.79336 9.5763 5.76716C9.6373 5.74095 9.70291 5.72716 9.7693 5.72658C9.83569 5.726 9.90153 5.73866 9.96298 5.7638C10.0244 5.78894 10.0803 5.82606 10.1272 5.87301C10.1741 5.91996 10.2113 5.97578 10.2364 6.03723C10.2616 6.09868 10.2742 6.16452 10.2736 6.23091C10.2731 6.2973 10.2593 6.36291 10.2331 6.42391C10.2068 6.48491 10.1688 6.54008 10.121 6.58621L8.707 8.00021L10.121 9.41421C10.1688 9.46033 10.2068 9.5155 10.2331 9.5765C10.2593 9.63751 10.2731 9.70312 10.2736 9.76951C10.2742 9.8359 10.2616 9.90174 10.2364 9.96318C10.2113 10.0246 10.1741 10.0805 10.1272 10.1274C10.0803 10.1744 10.0244 10.2115 9.96298 10.2366C9.90153 10.2618 9.83569 10.2744 9.7693 10.2738C9.70291 10.2733 9.6373 10.2595 9.5763 10.2333C9.5153 10.2071 9.46013 10.169 9.414 10.1212L8 8.70721L6.586 10.1212C6.4917 10.2123 6.3654 10.2627 6.2343 10.2615C6.1032 10.2604 5.9778 10.2078 5.88509 10.1151C5.79239 10.0224 5.73981 9.89701 5.73867 9.76591C5.73753 9.63481 5.78792 9.50851 5.879 9.41421L7.293 8.00021Z" fill="#696969"/>
<path d="M8 14C8.78793 14 9.56815 13.8448 10.2961 13.5433C11.0241 13.2417 11.6855 12.7998 12.2426 12.2426C12.7998 11.6855 13.2417 11.0241 13.5433 10.2961C13.8448 9.56815 14 8.78793 14 8C14 7.21207 13.8448 6.43185 13.5433 5.7039C13.2417 4.97595 12.7998 4.31451 12.2426 3.75736C11.6855 3.20021 11.0241 2.75825 10.2961 2.45672C9.56815 2.15519 8.78793 2 8 2C6.4087 2 4.88258 2.63214 3.75736 3.75736C2.63214 4.88258 2 6.4087 2 8C2 9.5913 2.63214 11.1174 3.75736 12.2426C4.88258 13.3679 6.4087 14 8 14ZM8 15C6.14348 15 4.36301 14.2625 3.05025 12.9497C1.7375 11.637 1 9.85652 1 8C1 6.14348 1.7375 4.36301 3.05025 3.05025C4.36301 1.7375 6.14348 1 8 1C9.85652 1 11.637 1.7375 12.9497 3.05025C14.2625 4.36301 15 6.14348 15 8C15 9.85652 14.2625 11.637 12.9497 12.9497C11.637 14.2625 9.85652 15 8 15Z" fill="#696969"/>
</svg>
