<svg width="50" height="50" viewBox="0 0 50 50" fill="none" xmlns="http://www.w3.org/2000/svg">
<rect x="0.5" y="0.5" width="49" height="49" rx="24.5" fill="white"/>
<path d="M25.3534 26.0464L24.9998 25.6929L24.6463 26.0464L19.7463 30.9464C19.6658 31.0268 19.5641 31.075 19.3998 31.075C19.2355 31.075 19.1338 31.0268 19.0534 30.9464C18.973 30.866 18.9248 30.7643 18.9248 30.6C18.9248 30.4357 18.973 30.3339 19.0534 30.2535L23.9534 25.3535L24.3069 25L23.9534 24.6464L19.0534 19.7464C18.973 19.666 18.9248 19.5643 18.9248 19.4C18.9248 19.2357 18.973 19.1339 19.0534 19.0535C19.1338 18.9731 19.2355 18.925 19.3998 18.925C19.5641 18.925 19.6658 18.9731 19.7463 19.0535L24.6463 23.9535L24.9998 24.3071L25.3534 23.9535L30.2534 19.0535C30.3338 18.9731 30.4355 18.925 30.5998 18.925C30.7641 18.925 30.8658 18.9731 30.9462 19.0535C31.0267 19.1339 31.0748 19.2357 31.0748 19.4C31.0748 19.5643 31.0267 19.666 30.9462 19.7464L26.0463 24.6464L25.6927 25L26.0463 25.3535L30.9462 30.2535C31.0267 30.3339 31.0748 30.4357 31.0748 30.6C31.0748 30.7643 31.0267 30.866 30.9462 30.9464C30.8658 31.0268 30.7641 31.075 30.5998 31.075C30.4355 31.075 30.3338 31.0268 30.2534 30.9464L25.3534 26.0464Z" fill="black" stroke="#242424"/>
<rect x="0.5" y="0.5" width="49" height="49" rx="24.5" stroke="#242424"/>
</svg>
