<svg width="16" height="16" viewBox="0 0 16 16" fill="none" xmlns="http://www.w3.org/2000/svg">
<path d="M15.0533 3.69766L12.4444 1.07543C12.272 0.903907 12.0387 0.807617 11.7956 0.807617C11.5524 0.807617 11.3191 0.903907 11.1467 1.07543L1.89777 10.311L1.05333 13.9554C1.0242 14.0887 1.0252 14.2267 1.05625 14.3595C1.08731 14.4923 1.14763 14.6165 1.23282 14.7229C1.31801 14.8294 1.42592 14.9156 1.54865 14.975C1.67138 15.0344 1.80585 15.0657 1.94222 15.0665C2.00576 15.073 2.06979 15.073 2.13333 15.0665L5.81777 14.2221L15.0533 4.99543C15.2249 4.82304 15.3211 4.58974 15.3211 4.34654C15.3211 4.10335 15.2249 3.87005 15.0533 3.69766ZM5.37333 13.4221L1.91999 14.1465L2.70666 10.7599L9.62666 3.86654L12.2933 6.53321L5.37333 13.4221ZM12.8889 5.88877L10.2222 3.2221L11.7689 1.68432L14.3911 4.35099L12.8889 5.88877Z" fill="#222222"/>
</svg>
