<svg width="14" height="14" viewBox="0 0 14 14" fill="none" xmlns="http://www.w3.org/2000/svg">
<path d="M13.1599 9.50921L8.68573 2.08921C8.50481 1.80619 8.25555 1.57327 7.96093 1.41193C7.6663 1.25059 7.3358 1.16602 6.9999 1.16602C6.66399 1.16602 6.33349 1.25059 6.03886 1.41193C5.74424 1.57327 5.49498 1.80619 5.31406 2.08921L0.839896 9.50921C0.681844 9.77268 0.595939 10.0731 0.590819 10.3803C0.585699 10.6875 0.661544 10.9906 0.810729 11.2592C0.983209 11.5615 1.23286 11.8126 1.53418 11.9869C1.8355 12.1611 2.17767 12.2522 2.52573 12.2509H11.4741C11.8198 12.2546 12.1605 12.167 12.4616 11.997C12.7627 11.827 13.0136 11.5805 13.1891 11.2825C13.3426 11.0112 13.4209 10.7037 13.4158 10.3919C13.4106 10.0801 13.3223 9.77539 13.1599 9.50921ZM6.9999 9.91755C6.88452 9.91755 6.77174 9.88333 6.67581 9.81924C6.57988 9.75514 6.50512 9.66403 6.46097 9.55744C6.41681 9.45085 6.40526 9.33357 6.42777 9.22041C6.45028 9.10725 6.50584 9.00331 6.58742 8.92173C6.669 8.84015 6.77294 8.7846 6.88609 8.76209C6.99925 8.73958 7.11654 8.75113 7.22313 8.79528C7.32972 8.83943 7.42082 8.9142 7.48492 9.01013C7.54902 9.10606 7.58323 9.21884 7.58323 9.33421C7.58323 9.48892 7.52177 9.6373 7.41237 9.74669C7.30298 9.85609 7.1546 9.91755 6.9999 9.91755ZM7.58323 7.58421C7.58323 7.73892 7.52177 7.8873 7.41237 7.99669C7.30298 8.10609 7.1546 8.16755 6.9999 8.16755C6.84519 8.16755 6.69681 8.10609 6.58742 7.99669C6.47802 7.8873 6.41656 7.73892 6.41656 7.58421V5.25088C6.41656 5.09617 6.47802 4.9478 6.58742 4.8384C6.69681 4.729 6.84519 4.66755 6.9999 4.66755C7.1546 4.66755 7.30298 4.729 7.41237 4.8384C7.52177 4.9478 7.58323 5.09617 7.58323 5.25088V7.58421Z" fill="#DF2040"/>
</svg>
