<svg width="24" height="24" viewBox="0 0 24 24" fill="none" xmlns="http://www.w3.org/2000/svg">
<path d="M12 10.6L16.9 5.69995C17.0833 5.51662 17.3167 5.42495 17.6 5.42495C17.8833 5.42495 18.1167 5.51662 18.3 5.69995C18.4833 5.88329 18.575 6.11662 18.575 6.39995C18.575 6.68328 18.4833 6.91662 18.3 7.09995L13.4 12L18.3 16.9C18.4833 17.0833 18.575 17.3166 18.575 17.6C18.575 17.8833 18.4833 18.1166 18.3 18.3C18.1167 18.4833 17.8833 18.575 17.6 18.575C17.3167 18.575 17.0833 18.4833 16.9 18.3L12 13.4L7.10001 18.3C6.91668 18.4833 6.68335 18.575 6.40001 18.575C6.11668 18.575 5.88335 18.4833 5.70001 18.3C5.51668 18.1166 5.42501 17.8833 5.42501 17.6C5.42501 17.3166 5.51668 17.0833 5.70001 16.9L10.6 12L5.70001 7.09995C5.51668 6.91662 5.42501 6.68328 5.42501 6.39995C5.42501 6.11662 5.51668 5.88329 5.70001 5.69995C5.88335 5.51662 6.11668 5.42495 6.40001 5.42495C6.68335 5.42495 6.91668 5.51662 7.10001 5.69995L12 10.6Z" fill="#242424"/>
</svg>
