<svg width="14" height="14" viewBox="0 0 14 14" fill="none" xmlns="http://www.w3.org/2000/svg">
<path d="M6.73663 2.06033C6.76073 2.01101 6.79819 1.96944 6.84475 1.94036C6.89132 1.91129 6.94511 1.89587 7 1.89587C7.0549 1.89587 7.10869 1.91129 7.15525 1.94036C7.20182 1.96944 7.23928 2.01101 7.26338 2.06033L8.65813 4.9C8.701 4.98691 8.78355 5.04729 8.8795 5.06129L11.9983 5.51658C12.2392 5.55187 12.3352 5.84937 12.161 6.02L9.90413 8.23054C9.87001 8.26399 9.8445 8.30521 9.82977 8.35067C9.81504 8.39612 9.81153 8.44447 9.81955 8.49158L10.3524 11.6124C10.3935 11.8536 10.1418 12.0377 9.9263 11.9239L7.1368 10.4501C7.09465 10.4278 7.04769 10.4162 7 10.4162C6.95232 10.4162 6.90536 10.4278 6.86321 10.4501L4.07371 11.9239C3.85817 12.0377 3.60646 11.8539 3.64759 11.6127L4.18017 8.49187C4.18824 8.44472 4.18475 8.39631 4.17002 8.3508C4.15529 8.30529 4.12975 8.26402 4.09559 8.23054L1.83925 6.02C1.66484 5.84937 1.76109 5.55187 2.002 5.51658L5.12109 5.06158C5.21675 5.04729 5.2993 4.98691 5.34217 4.9L6.73692 2.06033H6.73663Z" fill="#EBB513"/>
</svg>
