<svg width="25" height="24" viewBox="0 0 25 24" fill="none" xmlns="http://www.w3.org/2000/svg">
<path d="M19.25 12.75L4.25 12.75C4.05109 12.75 3.86032 12.671 3.71967 12.5303C3.57902 12.3897 3.5 12.1989 3.5 12C3.5 11.8011 3.57902 11.6103 3.71967 11.4697C3.86032 11.329 4.05109 11.25 4.25 11.25L19.25 11.25C19.4489 11.25 19.6397 11.329 19.7803 11.4697C19.921 11.6103 20 11.8011 20 12C20 12.1989 19.921 12.3897 19.7803 12.5303C19.6397 12.671 19.4489 12.75 19.25 12.75Z" fill="white"/>
<path d="M18.9394 12L12.7189 5.78103C12.5781 5.6402 12.4989 5.44919 12.4989 5.25003C12.4989 5.05087 12.5781 4.85986 12.7189 4.71903C12.8597 4.5782 13.0507 4.49908 13.2499 4.49908C13.449 4.49908 13.6401 4.5782 13.7809 4.71903L20.5309 11.469C20.6007 11.5387 20.6561 11.6215 20.6939 11.7126C20.7318 11.8037 20.7512 11.9014 20.7512 12C20.7512 12.0987 20.7318 12.1964 20.6939 12.2875C20.6561 12.3786 20.6007 12.4614 20.5309 12.531L13.7809 19.281C13.6401 19.4219 13.449 19.501 13.2499 19.501C13.0507 19.501 12.8597 19.4219 12.7189 19.281C12.5781 19.1402 12.4989 18.9492 12.4989 18.75C12.4989 18.5509 12.5781 18.3599 12.7189 18.219L18.9394 12Z" fill="white"/>
</svg>
