<svg width="25" height="24" viewBox="0 0 25 24" fill="none" xmlns="http://www.w3.org/2000/svg">
<path d="M19.25 12.75L4.25 12.75C4.05109 12.75 3.86032 12.671 3.71967 12.5303C3.57902 12.3897 3.5 12.1989 3.5 12C3.5 11.8011 3.57902 11.6103 3.71967 11.4697C3.86032 11.329 4.05109 11.25 4.25 11.25L19.25 11.25C19.4489 11.25 19.6397 11.329 19.7803 11.4697C19.921 11.6103 20 11.8011 20 12C20 12.1989 19.921 12.3897 19.7803 12.5303C19.6397 12.671 19.4489 12.75 19.25 12.75Z" fill="#242424"/>
<path d="M18.9391 12L12.7186 5.78103C12.5778 5.6402 12.4987 5.44919 12.4987 5.25003C12.4987 5.05087 12.5778 4.85986 12.7186 4.71903C12.8595 4.5782 13.0505 4.49908 13.2496 4.49908C13.4488 4.49908 13.6398 4.5782 13.7806 4.71903L20.5306 11.469C20.6005 11.5387 20.6559 11.6215 20.6937 11.7126C20.7315 11.8037 20.751 11.9014 20.751 12C20.751 12.0987 20.7315 12.1964 20.6937 12.2875C20.6559 12.3786 20.6005 12.4614 20.5306 12.531L13.7806 19.281C13.6398 19.4219 13.4488 19.501 13.2496 19.501C13.0505 19.501 12.8595 19.4219 12.7186 19.281C12.5778 19.1402 12.4987 18.9492 12.4987 18.75C12.4987 18.5509 12.5778 18.3599 12.7186 18.219L18.9391 12Z" fill="#242424"/>
</svg>
