<svg width="14" height="14" viewBox="0 0 14 14" fill="none" xmlns="http://www.w3.org/2000/svg">
<path fill-rule="evenodd" clip-rule="evenodd" d="M6.99992 0.583984C3.45617 0.583984 0.583252 3.4569 0.583252 7.00065C0.583252 10.5444 3.45617 13.4173 6.99992 13.4173C10.5437 13.4173 13.4166 10.5444 13.4166 7.00065C13.4166 3.4569 10.5437 0.583984 6.99992 0.583984ZM9.78125 5.91565C9.83247 5.85711 9.87146 5.78892 9.89593 5.71508C9.9204 5.64125 9.92986 5.56327 9.92374 5.48573C9.91763 5.40818 9.89607 5.33265 9.86034 5.26356C9.8246 5.19447 9.77541 5.13323 9.71565 5.08343C9.6559 5.03364 9.58679 4.9963 9.51239 4.9736C9.43799 4.95091 9.35981 4.94333 9.28243 4.9513C9.20506 4.95927 9.13006 4.98264 9.06185 5.02002C8.99364 5.0574 8.9336 5.10805 8.88525 5.16898L6.37692 8.1784L5.079 6.8799C4.96898 6.77364 4.82163 6.71485 4.66868 6.71617C4.51574 6.7175 4.36943 6.77885 4.26127 6.88701C4.15312 6.99516 4.09177 7.14147 4.09044 7.29442C4.08911 7.44737 4.14791 7.59472 4.25417 7.70473L6.00417 9.45473C6.06148 9.51202 6.13011 9.55673 6.20566 9.58602C6.28121 9.61531 6.36204 9.62854 6.44299 9.62486C6.52394 9.62119 6.60324 9.60068 6.67583 9.56466C6.74841 9.52864 6.8127 9.47789 6.86458 9.41565L9.78125 5.91565Z" fill="#35B56F"/>
</svg>
