<svg width="24" height="24" viewBox="0 0 24 24" fill="none" xmlns="http://www.w3.org/2000/svg">
<path d="M3.60001 6.0001C3.60001 5.36358 3.85286 4.75313 4.30295 4.30304C4.75304 3.85295 5.36349 3.6001 6.00001 3.6001H14.4C15.0365 3.6001 15.647 3.85295 16.0971 4.30304C16.5471 4.75313 16.8 5.36358 16.8 6.0001V14.4001H20.4V16.8001C20.4 17.7549 20.0207 18.6706 19.3456 19.3457C18.6705 20.0208 17.7548 20.4001 16.8 20.4001H7.20001C6.24523 20.4001 5.32955 20.0208 4.65442 19.3457C3.97929 18.6706 3.60001 17.7549 3.60001 16.8001V6.0001ZM16.8 15.6001V19.2001C17.4365 19.2001 18.047 18.9472 18.4971 18.4972C18.9471 18.0471 19.2 17.4366 19.2 16.8001V15.6001H16.8ZM15.6 19.2001V6.0001C15.6 5.68184 15.4736 5.37661 15.2485 5.15157C15.0235 4.92653 14.7183 4.8001 14.4 4.8001H6.00001C5.68175 4.8001 5.37652 4.92653 5.15148 5.15157C4.92643 5.37661 4.80001 5.68184 4.80001 6.0001V16.8001C4.80001 17.4366 5.05286 18.0471 5.50295 18.4972C5.95304 18.9472 6.56349 19.2001 7.20001 19.2001H15.6ZM7.20001 7.8001C7.20001 7.64097 7.26322 7.48836 7.37574 7.37583C7.48826 7.26331 7.64088 7.2001 7.80001 7.2001H12.6C12.7591 7.2001 12.9117 7.26331 13.0243 7.37583C13.1368 7.48836 13.2 7.64097 13.2 7.8001C13.2 7.95923 13.1368 8.11184 13.0243 8.22436C12.9117 8.33688 12.7591 8.4001 12.6 8.4001H7.80001C7.64088 8.4001 7.48826 8.33688 7.37574 8.22436C7.26322 8.11184 7.20001 7.95923 7.20001 7.8001ZM7.20001 11.4001C7.20001 11.241 7.26322 11.0884 7.37574 10.9758C7.48826 10.8633 7.64088 10.8001 7.80001 10.8001H12.6C12.7591 10.8001 12.9117 10.8633 13.0243 10.9758C13.1368 11.0884 13.2 11.241 13.2 11.4001C13.2 11.5592 13.1368 11.7118 13.0243 11.8244C12.9117 11.9369 12.7591 12.0001 12.6 12.0001H7.80001C7.64088 12.0001 7.48826 11.9369 7.37574 11.8244C7.26322 11.7118 7.20001 11.5592 7.20001 11.4001ZM7.20001 15.0001C7.20001 14.841 7.26322 14.6884 7.37574 14.5758C7.48826 14.4633 7.64088 14.4001 7.80001 14.4001H10.2C10.3591 14.4001 10.5117 14.4633 10.6243 14.5758C10.7368 14.6884 10.8 14.841 10.8 15.0001C10.8 15.1592 10.7368 15.3118 10.6243 15.4244C10.5117 15.5369 10.3591 15.6001 10.2 15.6001H7.80001C7.64088 15.6001 7.48826 15.5369 7.37574 15.4244C7.26322 15.3118 7.20001 15.1592 7.20001 15.0001Z" fill="#222222"/>
</svg>
