<svg width="24" height="24" viewBox="0 0 24 24" fill="none" xmlns="http://www.w3.org/2000/svg">
<rect width="24" height="24" rx="12" fill="#F6F8F9"/>
<path d="M16.0622 19.1111H7.93775C7.76673 19.1071 7.59817 19.0694 7.44172 19.0002C7.28527 18.931 7.14398 18.8316 7.02594 18.7078C6.9079 18.584 6.81541 18.4381 6.75376 18.2785C6.69211 18.1189 6.66251 17.9488 6.66664 17.7778V8.99109H7.55553V17.7778C7.55129 17.8321 7.55782 17.8867 7.57476 17.9385C7.5917 17.9902 7.6187 18.0382 7.65422 18.0795C7.68974 18.1208 7.73308 18.1546 7.78174 18.1791C7.8304 18.2036 7.88342 18.2183 7.93775 18.2222H16.0622C16.1165 18.2183 16.1696 18.2036 16.2182 18.1791C16.2669 18.1546 16.3102 18.1208 16.3457 18.0795C16.3812 18.0382 16.4082 17.9902 16.4252 17.9385C16.4421 17.8867 16.4487 17.8321 16.4444 17.7778V8.99109H17.3333V17.7778C17.3374 17.9488 17.3078 18.1189 17.2462 18.2785C17.1845 18.4381 17.092 18.584 16.974 18.7078C16.856 18.8316 16.7147 18.931 16.5582 19.0002C16.4018 19.0694 16.2332 19.1071 16.0622 19.1111Z" fill="#242424"/>
<path d="M17.68 7.99997H6.22222C6.10434 7.99997 5.9913 7.95315 5.90795 7.8698C5.8246 7.78645 5.77777 7.6734 5.77777 7.55553C5.77777 7.43765 5.8246 7.32461 5.90795 7.24126C5.9913 7.15791 6.10434 7.11108 6.22222 7.11108H17.68C17.7979 7.11108 17.9109 7.15791 17.9943 7.24126C18.0776 7.32461 18.1244 7.43765 18.1244 7.55553C18.1244 7.6734 18.0776 7.78645 17.9943 7.8698C17.9109 7.95315 17.7979 7.99997 17.68 7.99997Z" fill="#242424"/>
<path d="M13.3333 9.77783H14.2222V16.4445H13.3333V9.77783Z" fill="#242424"/>
<path d="M9.77777 9.77783H10.6667V16.4445H9.77777V9.77783Z" fill="#242424"/>
<path d="M14.2222 6.60447H13.3778V5.7778H10.6222V6.60447H9.77777V5.7778C9.77749 5.54956 9.86501 5.32995 10.0222 5.16447C10.1794 4.99899 10.3943 4.90033 10.6222 4.88892H13.3778C13.6057 4.90033 13.8206 4.99899 13.9778 5.16447C14.135 5.32995 14.2225 5.54956 14.2222 5.7778V6.60447Z" fill="#242424"/>
</svg>
